<?xml version="1.0" encoding="UTF-8" standalone="no"?>
<!-- Generator: Adobe Illustrator 17.0.0, SVG Export Plug-In . SVG Version: 6.00 Build 0)  -->

<svg
   version="1.1"
   id="Layer_1"
   x="0px"
   y="0px"
   width="400px"
   height="400px"
   viewBox="0 0 400 400"
   enable-background="new 0 0 400 400"
   xml:space="preserve"
   sodipodi:docname="CoverChart.svg"
   inkscape:version="1.3 (0e150ed6c4, 2023-07-21)"
   xmlns:inkscape="http://www.inkscape.org/namespaces/inkscape"
   xmlns:sodipodi="http://sodipodi.sourceforge.net/DTD/sodipodi-0.dtd"
   xmlns="http://www.w3.org/2000/svg"
   xmlns:svg="http://www.w3.org/2000/svg"><defs
   id="defs76" /><sodipodi:namedview
   id="namedview76"
   pagecolor="#ffffff"
   bordercolor="#000000"
   borderopacity="0.25"
   inkscape:showpageshadow="2"
   inkscape:pageopacity="0.0"
   inkscape:pagecheckerboard="0"
   inkscape:deskcolor="#d1d1d1"
   showgrid="false"
   inkscape:zoom="2.2275"
   inkscape:cx="200"
   inkscape:cy="200"
   inkscape:window-width="1920"
   inkscape:window-height="1129"
   inkscape:window-x="1912"
   inkscape:window-y="-8"
   inkscape:window-maximized="1"
   inkscape:current-layer="Layer_1"><inkscape:grid
     id="grid76"
     units="px"
     originx="0"
     originy="0"
     spacingx="1"
     spacingy="1"
     empcolor="#0099e5"
     empopacity="0.30196078"
     color="#0099e5"
     opacity="0.14901961"
     empspacing="5"
     dotted="false"
     gridanglex="30"
     gridanglez="30"
     visible="false" /></sodipodi:namedview>&#10;<g
   id="g2">&#10;	<g
   id="g1">&#10;		<path
   fill="#1e1e1e"
   d="M 0,0 V 400 H 400 V 0 Z m 215.75,163.646 c 0,5.718 -4.636,10.354 -10.354,10.354 H 54.604 C 48.886,174 44.25,169.364 44.25,163.646 v -55.28 c 0,-5.719 22.636,-36.354 28.354,-36.354 h 132.792 c 5.718,0 10.354,4.636 10.354,10.354 z m 138.75196,0.40814 c 0.18652,5.71496 -4.636,10.354 -10.354,10.354 h -110.792 c -5.718,0 -10.354,-4.636 -10.354,-10.354 v -81.28 c 0,-5.718999 4.636,-10.353999 10.354,-10.353999 h 94.792 c 5.718,0 24.16748,24.639043 24.354,30.353999 z"
   id="path1"
   inkscape:label="path1"
   sodipodi:nodetypes="cccccssssssssssssssssss"
   style="fill:#162926;fill-opacity:1" />&#10;	</g>&#10;</g>&#10;<circle
   fill="none"
   stroke="#656666"
   stroke-width="1.4173"
   stroke-miterlimit="10"
   cx="200"
   cy="200"
   r="181.881"
   id="circle2" />&#10;<g
   id="g74">&#10;	<g
   id="g3">&#10;		&#10;			<line
   fill="none"
   stroke="#666766"
   stroke-width="1.7008"
   stroke-linecap="round"
   stroke-miterlimit="10"
   x1="4.701"
   y1="220.527"
   x2="13.359"
   y2="219.617"
   id="line2" />&#10;		&#10;			<line
   fill="none"
   stroke="#666766"
   stroke-width="1.7008"
   stroke-linecap="round"
   stroke-miterlimit="10"
   x1="386.641"
   y1="180.383"
   x2="395.299"
   y2="179.473"
   id="line3" />&#10;	</g>&#10;	<g
   id="g5">&#10;		&#10;			<line
   fill="none"
   stroke="#666766"
   stroke-width="1.7008"
   stroke-linecap="round"
   stroke-miterlimit="10"
   x1="7.916"
   y1="240.829"
   x2="16.432"
   y2="239.019"
   id="line4" />&#10;		&#10;			<line
   fill="none"
   stroke="#666766"
   stroke-width="1.7008"
   stroke-linecap="round"
   stroke-miterlimit="10"
   x1="383.568"
   y1="160.981"
   x2="392.084"
   y2="159.171"
   id="line5" />&#10;	</g>&#10;	<g
   id="g7">&#10;		&#10;			<line
   fill="none"
   stroke="#666766"
   stroke-width="1.7008"
   stroke-linecap="round"
   stroke-miterlimit="10"
   x1="13.236"
   y1="260.683"
   x2="21.516"
   y2="257.993"
   id="line6" />&#10;		&#10;			<line
   fill="none"
   stroke="#666766"
   stroke-width="1.7008"
   stroke-linecap="round"
   stroke-miterlimit="10"
   x1="378.484"
   y1="142.007"
   x2="386.764"
   y2="139.317"
   id="line7" />&#10;	</g>&#10;	<g
   id="g9">&#10;		&#10;			<line
   fill="none"
   stroke="#666766"
   stroke-width="1.7008"
   stroke-linecap="round"
   stroke-miterlimit="10"
   x1="20.603"
   y1="279.873"
   x2="28.556"
   y2="276.332"
   id="line8" />&#10;		&#10;			<line
   fill="none"
   stroke="#666766"
   stroke-width="1.7008"
   stroke-linecap="round"
   stroke-miterlimit="10"
   x1="371.444"
   y1="123.668"
   x2="379.397"
   y2="120.127"
   id="line9" />&#10;	</g>&#10;	<g
   id="g11">&#10;		&#10;			<line
   fill="none"
   stroke="#666766"
   stroke-width="1.7008"
   stroke-linecap="round"
   stroke-miterlimit="10"
   x1="41.129"
   y1="315.426"
   x2="48.172"
   y2="310.309"
   id="line10" />&#10;		&#10;			<line
   fill="none"
   stroke="#666766"
   stroke-width="1.7008"
   stroke-linecap="round"
   stroke-miterlimit="10"
   x1="351.828"
   y1="89.691"
   x2="358.871"
   y2="84.574"
   id="line11" />&#10;	</g>&#10;	<g
   id="g13">&#10;		&#10;			<line
   fill="none"
   stroke="#666766"
   stroke-width="1.7008"
   stroke-linecap="round"
   stroke-miterlimit="10"
   x1="54.065"
   y1="331.401"
   x2="60.535"
   y2="325.575"
   id="line12" />&#10;		&#10;			<line
   fill="none"
   stroke="#666766"
   stroke-width="1.7008"
   stroke-linecap="round"
   stroke-miterlimit="10"
   x1="339.465"
   y1="74.425"
   x2="345.935"
   y2="68.599"
   id="line13" />&#10;	</g>&#10;	<g
   id="g15">&#10;		&#10;			<line
   fill="none"
   stroke="#666766"
   stroke-width="1.7008"
   stroke-linecap="round"
   stroke-miterlimit="10"
   x1="68.599"
   y1="345.935"
   x2="74.425"
   y2="339.465"
   id="line14" />&#10;		&#10;			<line
   fill="none"
   stroke="#666766"
   stroke-width="1.7008"
   stroke-linecap="round"
   stroke-miterlimit="10"
   x1="325.575"
   y1="60.535"
   x2="331.401"
   y2="54.065"
   id="line15" />&#10;	</g>&#10;	<g
   id="g17">&#10;		&#10;			<line
   fill="none"
   stroke="#666766"
   stroke-width="1.7008"
   stroke-linecap="round"
   stroke-miterlimit="10"
   x1="84.574"
   y1="358.871"
   x2="89.691"
   y2="351.828"
   id="line16" />&#10;		&#10;			<line
   fill="none"
   stroke="#666766"
   stroke-width="1.7008"
   stroke-linecap="round"
   stroke-miterlimit="10"
   x1="310.309"
   y1="48.172"
   x2="315.426"
   y2="41.129"
   id="line17" />&#10;	</g>&#10;	<g
   id="g19">&#10;		&#10;			<line
   fill="none"
   stroke="#666766"
   stroke-width="1.7008"
   stroke-linecap="round"
   stroke-miterlimit="10"
   x1="120.127"
   y1="379.397"
   x2="123.668"
   y2="371.444"
   id="line18" />&#10;		&#10;			<line
   fill="none"
   stroke="#666766"
   stroke-width="1.7008"
   stroke-linecap="round"
   stroke-miterlimit="10"
   x1="276.332"
   y1="28.556"
   x2="279.873"
   y2="20.603"
   id="line19" />&#10;	</g>&#10;	<g
   id="g21">&#10;		&#10;			<line
   fill="none"
   stroke="#666766"
   stroke-width="1.7008"
   stroke-linecap="round"
   stroke-miterlimit="10"
   x1="139.317"
   y1="386.764"
   x2="142.007"
   y2="378.484"
   id="line20" />&#10;		&#10;			<line
   fill="none"
   stroke="#666766"
   stroke-width="1.7008"
   stroke-linecap="round"
   stroke-miterlimit="10"
   x1="257.993"
   y1="21.516"
   x2="260.683"
   y2="13.236"
   id="line21" />&#10;	</g>&#10;	<g
   id="g23">&#10;		&#10;			<line
   fill="none"
   stroke="#666766"
   stroke-width="1.7008"
   stroke-linecap="round"
   stroke-miterlimit="10"
   x1="159.171"
   y1="392.084"
   x2="160.981"
   y2="383.568"
   id="line22" />&#10;		&#10;			<line
   fill="none"
   stroke="#666766"
   stroke-width="1.7008"
   stroke-linecap="round"
   stroke-miterlimit="10"
   x1="239.019"
   y1="16.432"
   x2="240.829"
   y2="7.916"
   id="line23" />&#10;	</g>&#10;	<g
   id="g25">&#10;		&#10;			<line
   fill="none"
   stroke="#666766"
   stroke-width="1.7008"
   stroke-linecap="round"
   stroke-miterlimit="10"
   x1="179.473"
   y1="395.299"
   x2="180.383"
   y2="386.641"
   id="line24" />&#10;		&#10;			<line
   fill="none"
   stroke="#666766"
   stroke-width="1.7008"
   stroke-linecap="round"
   stroke-miterlimit="10"
   x1="219.617"
   y1="13.359"
   x2="220.527"
   y2="4.701"
   id="line25" />&#10;	</g>&#10;	<g
   id="g27">&#10;		&#10;			<line
   fill="none"
   stroke="#666766"
   stroke-width="1.7008"
   stroke-linecap="round"
   stroke-miterlimit="10"
   x1="220.527"
   y1="395.299"
   x2="219.617"
   y2="386.641"
   id="line26" />&#10;		&#10;			<line
   fill="none"
   stroke="#666766"
   stroke-width="1.7008"
   stroke-linecap="round"
   stroke-miterlimit="10"
   x1="180.383"
   y1="13.359"
   x2="179.473"
   y2="4.701"
   id="line27" />&#10;	</g>&#10;	<g
   id="g29">&#10;		&#10;			<line
   fill="none"
   stroke="#666766"
   stroke-width="1.7008"
   stroke-linecap="round"
   stroke-miterlimit="10"
   x1="240.829"
   y1="392.084"
   x2="239.019"
   y2="383.568"
   id="line28" />&#10;		&#10;			<line
   fill="none"
   stroke="#666766"
   stroke-width="1.7008"
   stroke-linecap="round"
   stroke-miterlimit="10"
   x1="160.981"
   y1="16.432"
   x2="159.171"
   y2="7.916"
   id="line29" />&#10;	</g>&#10;	<g
   id="g31">&#10;		&#10;			<line
   fill="none"
   stroke="#666766"
   stroke-width="1.7008"
   stroke-linecap="round"
   stroke-miterlimit="10"
   x1="260.683"
   y1="386.764"
   x2="257.993"
   y2="378.484"
   id="line30" />&#10;		&#10;			<line
   fill="none"
   stroke="#666766"
   stroke-width="1.7008"
   stroke-linecap="round"
   stroke-miterlimit="10"
   x1="142.007"
   y1="21.516"
   x2="139.317"
   y2="13.236"
   id="line31" />&#10;	</g>&#10;	<g
   id="g33">&#10;		&#10;			<line
   fill="none"
   stroke="#666766"
   stroke-width="1.7008"
   stroke-linecap="round"
   stroke-miterlimit="10"
   x1="279.873"
   y1="379.397"
   x2="276.332"
   y2="371.444"
   id="line32" />&#10;		&#10;			<line
   fill="none"
   stroke="#666766"
   stroke-width="1.7008"
   stroke-linecap="round"
   stroke-miterlimit="10"
   x1="123.668"
   y1="28.556"
   x2="120.127"
   y2="20.603"
   id="line33" />&#10;	</g>&#10;	<g
   id="g35">&#10;		&#10;			<line
   fill="none"
   stroke="#666766"
   stroke-width="1.7008"
   stroke-linecap="round"
   stroke-miterlimit="10"
   x1="315.426"
   y1="358.871"
   x2="310.309"
   y2="351.828"
   id="line34" />&#10;		&#10;			<line
   fill="none"
   stroke="#666766"
   stroke-width="1.7008"
   stroke-linecap="round"
   stroke-miterlimit="10"
   x1="89.691"
   y1="48.172"
   x2="84.574"
   y2="41.129"
   id="line35" />&#10;	</g>&#10;	<g
   id="g37">&#10;		&#10;			<line
   fill="none"
   stroke="#666766"
   stroke-width="1.7008"
   stroke-linecap="round"
   stroke-miterlimit="10"
   x1="331.401"
   y1="345.935"
   x2="325.575"
   y2="339.465"
   id="line36" />&#10;		&#10;			<line
   fill="none"
   stroke="#666766"
   stroke-width="1.7008"
   stroke-linecap="round"
   stroke-miterlimit="10"
   x1="74.425"
   y1="60.535"
   x2="68.599"
   y2="54.065"
   id="line37" />&#10;	</g>&#10;	<g
   id="g39">&#10;		&#10;			<line
   fill="none"
   stroke="#666766"
   stroke-width="1.7008"
   stroke-linecap="round"
   stroke-miterlimit="10"
   x1="345.935"
   y1="331.401"
   x2="339.465"
   y2="325.575"
   id="line38" />&#10;		&#10;			<line
   fill="none"
   stroke="#666766"
   stroke-width="1.7008"
   stroke-linecap="round"
   stroke-miterlimit="10"
   x1="60.535"
   y1="74.425"
   x2="54.065"
   y2="68.599"
   id="line39" />&#10;	</g>&#10;	<g
   id="g41">&#10;		&#10;			<line
   fill="none"
   stroke="#666766"
   stroke-width="1.7008"
   stroke-linecap="round"
   stroke-miterlimit="10"
   x1="358.871"
   y1="315.426"
   x2="351.828"
   y2="310.309"
   id="line40" />&#10;		&#10;			<line
   fill="none"
   stroke="#666766"
   stroke-width="1.7008"
   stroke-linecap="round"
   stroke-miterlimit="10"
   x1="48.172"
   y1="89.691"
   x2="41.129"
   y2="84.574"
   id="line41" />&#10;	</g>&#10;	<g
   id="g43">&#10;		&#10;			<line
   fill="none"
   stroke="#666766"
   stroke-width="1.7008"
   stroke-linecap="round"
   stroke-miterlimit="10"
   x1="386.764"
   y1="260.683"
   x2="378.484"
   y2="257.993"
   id="line42" />&#10;		&#10;			<line
   fill="none"
   stroke="#666766"
   stroke-width="1.7008"
   stroke-linecap="round"
   stroke-miterlimit="10"
   x1="21.516"
   y1="142.007"
   x2="13.236"
   y2="139.317"
   id="line43" />&#10;	</g>&#10;	<g
   id="g45">&#10;		&#10;			<line
   fill="none"
   stroke="#666766"
   stroke-width="1.7008"
   stroke-linecap="round"
   stroke-miterlimit="10"
   x1="392.084"
   y1="240.829"
   x2="383.568"
   y2="239.019"
   id="line44" />&#10;		&#10;			<line
   fill="none"
   stroke="#666766"
   stroke-width="1.7008"
   stroke-linecap="round"
   stroke-miterlimit="10"
   x1="16.432"
   y1="160.981"
   x2="7.916"
   y2="159.171"
   id="line45" />&#10;	</g>&#10;	<g
   id="g47">&#10;		&#10;			<line
   fill="none"
   stroke="#666766"
   stroke-width="1.7008"
   stroke-linecap="round"
   stroke-miterlimit="10"
   x1="379.397"
   y1="279.873"
   x2="371.444"
   y2="276.332"
   id="line46" />&#10;		&#10;			<line
   fill="none"
   stroke="#666766"
   stroke-width="1.7008"
   stroke-linecap="round"
   stroke-miterlimit="10"
   x1="28.556"
   y1="123.668"
   x2="20.603"
   y2="120.127"
   id="line47" />&#10;	</g>&#10;	<g
   id="g49">&#10;		&#10;			<line
   fill="none"
   stroke="#666766"
   stroke-width="1.7008"
   stroke-linecap="round"
   stroke-miterlimit="10"
   x1="395.299"
   y1="220.527"
   x2="386.641"
   y2="219.617"
   id="line48" />&#10;		&#10;			<line
   fill="none"
   stroke="#666766"
   stroke-width="1.7008"
   stroke-linecap="round"
   stroke-miterlimit="10"
   x1="13.359"
   y1="180.383"
   x2="4.701"
   y2="179.473"
   id="line49" />&#10;	</g>&#10;	<g
   id="_x35__min_Blanc">&#10;		<g
   id="g53">&#10;			<g
   id="_x33_-9_1_">&#10;				&#10;					<line
   fill="none"
   stroke="#FFFFFF"
   stroke-width="2.8346"
   stroke-linecap="round"
   stroke-miterlimit="10"
   x1="31.33"
   y1="300.605"
   x2="38.869"
   y2="296.252"
   id="line50" />&#10;				&#10;					<line
   fill="none"
   stroke="#FFFFFF"
   stroke-width="2.8346"
   stroke-linecap="round"
   stroke-miterlimit="10"
   x1="363.922"
   y1="108.583"
   x2="371.462"
   y2="104.23"
   id="line51" />&#10;			</g>&#10;			<g
   id="_x33_-9_2_">&#10;				&#10;					<line
   fill="none"
   stroke="#FFFFFF"
   stroke-width="2.8346"
   stroke-linecap="round"
   stroke-miterlimit="10"
   x1="28.538"
   y1="295.77"
   x2="36.078"
   y2="291.417"
   id="line52" />&#10;				&#10;					<line
   fill="none"
   stroke="#FFFFFF"
   stroke-width="2.8346"
   stroke-linecap="round"
   stroke-miterlimit="10"
   x1="361.131"
   y1="103.748"
   x2="368.67"
   y2="99.395"
   id="line53" />&#10;			</g>&#10;		</g>&#10;		<g
   id="g57">&#10;			<g
   id="_x33_-9_4_">&#10;				&#10;					<line
   fill="none"
   stroke="#FFFFFF"
   stroke-width="2.8346"
   stroke-linecap="round"
   stroke-miterlimit="10"
   x1="104.23"
   y1="371.462"
   x2="108.583"
   y2="363.922"
   id="line54" />&#10;				&#10;					<line
   fill="none"
   stroke="#FFFFFF"
   stroke-width="2.8346"
   stroke-linecap="round"
   stroke-miterlimit="10"
   x1="296.252"
   y1="38.869"
   x2="300.605"
   y2="31.33"
   id="line55" />&#10;			</g>&#10;			<g
   id="_x33_-9_3_">&#10;				&#10;					<line
   fill="none"
   stroke="#FFFFFF"
   stroke-width="2.8346"
   stroke-linecap="round"
   stroke-miterlimit="10"
   x1="99.395"
   y1="368.67"
   x2="103.748"
   y2="361.131"
   id="line56" />&#10;				&#10;					<line
   fill="none"
   stroke="#FFFFFF"
   stroke-width="2.8346"
   stroke-linecap="round"
   stroke-miterlimit="10"
   x1="291.417"
   y1="36.078"
   x2="295.77"
   y2="28.538"
   id="line57" />&#10;			</g>&#10;		</g>&#10;		<g
   id="g61">&#10;			<g
   id="_x33_-9_8_">&#10;				&#10;					<line
   fill="none"
   stroke="#FFFFFF"
   stroke-width="2.8346"
   stroke-linecap="round"
   stroke-miterlimit="10"
   x1="300.605"
   y1="368.67"
   x2="296.252"
   y2="361.131"
   id="line58" />&#10;				&#10;					<line
   fill="none"
   stroke="#FFFFFF"
   stroke-width="2.8346"
   stroke-linecap="round"
   stroke-miterlimit="10"
   x1="108.583"
   y1="36.078"
   x2="104.23"
   y2="28.538"
   id="line59" />&#10;			</g>&#10;			<g
   id="_x33_-9_7_">&#10;				&#10;					<line
   fill="none"
   stroke="#FFFFFF"
   stroke-width="2.8346"
   stroke-linecap="round"
   stroke-miterlimit="10"
   x1="295.77"
   y1="371.462"
   x2="291.417"
   y2="363.922"
   id="line60" />&#10;				&#10;					<line
   fill="none"
   stroke="#FFFFFF"
   stroke-width="2.8346"
   stroke-linecap="round"
   stroke-miterlimit="10"
   x1="103.748"
   y1="38.869"
   x2="99.395"
   y2="31.33"
   id="line61" />&#10;			</g>&#10;		</g>&#10;		<g
   id="g65">&#10;			<g
   id="_x33_-9_10_">&#10;				&#10;					<line
   fill="none"
   stroke="#FFFFFF"
   stroke-width="2.8346"
   stroke-linecap="round"
   stroke-miterlimit="10"
   x1="371.462"
   y1="295.77"
   x2="363.922"
   y2="291.417"
   id="line62" />&#10;				&#10;					<line
   fill="none"
   stroke="#FFFFFF"
   stroke-width="2.8346"
   stroke-linecap="round"
   stroke-miterlimit="10"
   x1="38.869"
   y1="103.748"
   x2="31.33"
   y2="99.395"
   id="line63" />&#10;			</g>&#10;			<g
   id="_x33_-9_9_">&#10;				&#10;					<line
   fill="none"
   stroke="#FFFFFF"
   stroke-width="2.8346"
   stroke-linecap="round"
   stroke-miterlimit="10"
   x1="368.67"
   y1="300.605"
   x2="361.131"
   y2="296.252"
   id="line64" />&#10;				&#10;					<line
   fill="none"
   stroke="#FFFFFF"
   stroke-width="2.8346"
   stroke-linecap="round"
   stroke-miterlimit="10"
   x1="36.078"
   y1="108.583"
   x2="28.538"
   y2="104.23"
   id="line65" />&#10;			</g>&#10;		</g>&#10;	</g>&#10;	<g
   id="_x33_-6-9-12_Blanc">&#10;		<g
   id="g69">&#10;			<g
   id="g66">&#10;				<path
   fill="#FFFFFF"
   d="M15.5,197.135c0,1.354,0,1.354-1.354,1.354H1.167C0,198.49,0,198.49,0,197.135v-1.979      c0-1.354,0-1.354,1.167-1.354h7.677c1.766,0,6.656,2.219,6.656,3.219V197.135z"
   id="path65" />&#10;				<path
   fill="#FFFFFF"
   d="M15.5,202.865c0-1.354,0-1.354-1.354-1.354H1.167C0,201.51,0,201.51,0,202.865v1.979      c0,1.354,0,1.354,1.167,1.354h7.677c1.766,0,6.656-2.219,6.656-3.219V202.865z"
   id="path66" />&#10;			</g>&#10;			<g
   id="g68">&#10;				<path
   fill="#FFFFFF"
   d="M384.5,197.135c0,1.354,0,1.354,1.354,1.354h12.979c1.167,0,1.167,0,1.167-1.354v-1.979      c0-1.354,0-1.354-1.167-1.354h-7.677c-1.766,0-6.656,2.219-6.656,3.219V197.135z"
   id="path67" />&#10;				<path
   fill="#FFFFFF"
   d="M384.5,202.865c0-1.354,0-1.354,1.354-1.354h12.979c1.167,0,1.167,0,1.167,1.354v1.979      c0,1.354,0,1.354-1.167,1.354h-7.677c-1.766,0-6.656-2.219-6.656-3.219V202.865z"
   id="path68" />&#10;			</g>&#10;		</g>&#10;		<g
   id="g73">&#10;			<g
   id="g70">&#10;				<path
   fill="#FFFFFF"
   d="M197.135,384.5c1.354,0,1.354,0,1.354,1.354v12.979c0,1.167,0,1.167-1.354,1.167h-1.979      c-1.354,0-1.354,0-1.354-1.167v-7.677c0-1.766,2.219-6.656,3.219-6.656H197.135z"
   id="path69" />&#10;				<path
   fill="#FFFFFF"
   d="M202.865,384.5c-1.354,0-1.354,0-1.354,1.354v12.979c0,1.167,0,1.167,1.354,1.167h1.979      c1.354,0,1.354,0,1.354-1.167v-7.677c0-1.766-2.219-6.656-3.219-6.656H202.865z"
   id="path70" />&#10;			</g>&#10;			<g
   id="g72">&#10;				<path
   fill="#FFFFFF"
   d="M197.135,15.5c1.354,0,1.354,0,1.354-1.354V1.167c0-1.167,0-1.167-1.354-1.167l-1.979,0      c-1.354,0-1.354,0-1.354,1.167v7.677c0,1.766,2.219,6.656,3.219,6.656H197.135z"
   id="path71" />&#10;				<path
   fill="#FFFFFF"
   d="M202.865,15.5c-1.354,0-1.354,0-1.354-1.354V1.167c0-1.167,0-1.167,1.354-1.167l1.979,0      c1.354,0,1.354,0,1.354,1.167v7.677c0,1.766-2.219,6.656-3.219,6.656H202.865z"
   id="path72" />&#10;			</g>&#10;		</g>&#10;	</g>&#10;</g>&#10;<path
   fill="none"
   stroke="#4d4d4e"
   stroke-width="1.7008"
   stroke-linecap="round"
   stroke-miterlimit="10"
   d="m 215.75,163.646 c 0,5.718 -4.636,10.354 -10.354,10.354 H 54.604 C 48.886,174 44.25,169.364 44.25,163.646 v -55.28 c 0,-5.718 22.636,-36.354 28.354,-36.354 h 132.792 c 5.718,0 10.354,4.636 10.354,10.354 z m 138.11897,-0.24506 c 0,5.718 -4.636,10.354 -10.354,10.354 h -110.792 c -5.718,0 -10.354,-4.636 -10.354,-10.354 v -81.28 c 0,-5.717997 4.636,-10.353997 10.354,-10.353997 h 94.792 c 5.718,0 26.354,28.635997 26.354,34.353997 z"
   id="path74"
   sodipodi:nodetypes="ssssssssssssssssss" />&#10;<g
   id="g75">&#10;	&#10;		<circle
   stroke="#666766"
   stroke-width="1.7008"
   stroke-linecap="round"
   stroke-miterlimit="10"
   cx="96.825"
   cy="239.884"
   r="51.925"
   id="circle74" />&#10;	&#10;		<circle
   stroke="#666766"
   stroke-width="1.7008"
   stroke-linecap="round"
   stroke-miterlimit="10"
   cx="303.175"
   cy="239.884"
   r="51.925"
   id="circle75" />&#10;</g>&#10;<path
   stroke="#666766"
   stroke-width="1.7008"
   stroke-linecap="round"
   stroke-miterlimit="10"
   d="M236,256.146  c0,9.032-7.322,16.354-16.354,16.354h-39.292c-9.032,0-16.354-7.322-16.354-16.354v-36.292c0-9.032,7.322-16.354,16.354-16.354  h39.292c9.032,0,16.354,7.322,16.354,16.354V256.146z"
   id="path75" />&#10;<path
   stroke="#666766"
   stroke-width="1.7008"
   stroke-linecap="round"
   stroke-miterlimit="10"
   d="M256.747,349.942  c0,9.032-7.322,16.354-16.354,16.354h-80.785c-9.032,0-16.354-7.322-16.354-16.354v-53.715c0-9.032,7.322-16.354,16.354-16.354  h80.785c9.032,0,16.354,7.322,16.354,16.354V349.942z"
   id="path76" />&#10;</svg>
