<?xml version="1.0" encoding="UTF-8" standalone="no"?>
<!-- Generator: Adobe Illustrator 17.0.0, SVG Export Plug-In . SVG Version: 6.00 Build 0)  -->

<svg
   version="1.1"
   id="Layer_1"
   x="0px"
   y="0px"
   width="19"
   height="19"
   viewBox="0 0 24.358974 24.358974"
   enable-background="new 0 0 24 24"
   xml:space="preserve"
   sodipodi:docname="ic_bolus.svg"
   inkscape:version="1.3 (0e150ed6c4, 2023-07-21)"
   xmlns:inkscape="http://www.inkscape.org/namespaces/inkscape"
   xmlns:sodipodi="http://sodipodi.sourceforge.net/DTD/sodipodi-0.dtd"
   xmlns="http://www.w3.org/2000/svg"
   xmlns:svg="http://www.w3.org/2000/svg"><defs
   id="defs1" /><sodipodi:namedview
   id="namedview1"
   pagecolor="#ffffff"
   bordercolor="#000000"
   borderopacity="0.25"
   inkscape:showpageshadow="2"
   inkscape:pageopacity="0.0"
   inkscape:pagecheckerboard="0"
   inkscape:deskcolor="#d1d1d1"
   inkscape:zoom="37.125"
   inkscape:cx="12"
   inkscape:cy="12"
   inkscape:window-width="1920"
   inkscape:window-height="1129"
   inkscape:window-x="1912"
   inkscape:window-y="-8"
   inkscape:window-maximized="1"
   inkscape:current-layer="Layer_1" />&#10;<path
   fill="#78cedc"
   d="M 19.952,12.935 19.247,13.647 8.241,2.709 C 8.138,2.607 7.986,2.569 7.833,2.606 L 4.018,3.52 0,0 3.426,4.113 2.539,7.945 C 2.504,8.099 2.543,8.251 2.646,8.353 l 11.006,10.937 -0.705,0.712 c -0.429,0.433 -0.467,1.09 -0.086,1.47 0.382,0.379 1.038,0.336 1.467,-0.097 l 2.726,-2.75 2.469,2.453 -1.185,1.195 c -0.429,0.433 -0.467,1.09 -0.086,1.47 0.381,0.38 1.038,0.336 1.467,-0.097 l 3.923,-3.957 c 0.429,-0.433 0.467,-1.09 0.086,-1.47 -0.381,-0.38 -1.038,-0.336 -1.467,0.097 l -1.185,1.195 -2.469,-2.453 2.726,-2.75 c 0.429,-0.433 0.467,-1.09 0.086,-1.47 -0.381,-0.38 -1.038,-0.336 -1.467,0.097 z M 4.303,4.398 7.698,3.585 18.54,14.359 17.903,15 11.503,8.64 C 11.402,8.539 11.228,8.548 11.11,8.659 L 7.658,11.919 6.913,11.179 9.383,8.88 C 9.386,8.877 9.39,8.873 9.393,8.87 9.507,8.757 9.522,8.585 9.426,8.48 9.328,8.37 9.149,8.374 9.028,8.487 L 6.538,10.805 5.682,9.955 8.152,7.656 C 8.155,7.653 8.159,7.649 8.162,7.646 8.275,7.532 8.29,7.36 8.194,7.255 8.095,7.145 7.916,7.149 7.795,7.262 L 5.304,9.58 4.448,8.73 6.918,6.431 C 6.921,6.428 6.925,6.424 6.928,6.421 7.041,6.307 7.056,6.134 6.96,6.029 6.862,5.92 6.683,5.923 6.562,6.036 L 4.072,8.354 3.516,7.803 Z"
   id="path1" />&#10;</svg>
