<?xml version="1.0" encoding="UTF-8" standalone="no"?>
<!-- Generator: Adobe Illustrator 17.0.0, SVG Export Plug-In . SVG Version: 6.00 Build 0)  -->

<svg
   version="1.1"
   id="svg6582"
   x="0px"
   y="0px"
   width="17"
   height="17"
   viewBox="0 0 24.285714 24.285714"
   enable-background="new 0 0 24 24"
   xml:space="preserve"
   sodipodi:docname="ic_carbs.svg"
   inkscape:version="1.3 (0e150ed6c4, 2023-07-21)"
   xmlns:inkscape="http://www.inkscape.org/namespaces/inkscape"
   xmlns:sodipodi="http://sodipodi.sourceforge.net/DTD/sodipodi-0.dtd"
   xmlns="http://www.w3.org/2000/svg"
   xmlns:svg="http://www.w3.org/2000/svg"><defs
   id="defs1" /><sodipodi:namedview
   id="namedview1"
   pagecolor="#ffffff"
   bordercolor="#000000"
   borderopacity="0.25"
   inkscape:showpageshadow="2"
   inkscape:pageopacity="0.0"
   inkscape:pagecheckerboard="0"
   inkscape:deskcolor="#d1d1d1"
   inkscape:zoom="37.125"
   inkscape:cx="12"
   inkscape:cy="12"
   inkscape:window-width="1920"
   inkscape:window-height="1129"
   inkscape:window-x="1912"
   inkscape:window-y="-8"
   inkscape:window-maximized="1"
   inkscape:current-layer="svg6582" />&#10;<g
   id="layer1"
   transform="translate(0,-290.64998)">&#10;	<path
   id="path7219"
   fill="#fb8c00"
   d="m 0.276,314.161 c -0.424,-0.475 -0.412,-0.512 0.415,-1.292 0.468,-0.442 0.907,-0.97 0.974,-1.173 0.067,-0.203 -0.273,-1.089 -0.757,-1.969 -0.838,-1.524 -0.879,-1.71 -0.879,-3.938 0,-2.129 0.064,-2.456 0.716,-3.648 0.867,-1.586 2.258,-2.915 2.643,-2.525 0.495,0.501 0.794,0.262 1.438,-1.15 1.008,-2.211 1.877,-3.122 2.987,-3.131 0.869,-0.008 0.943,-0.069 1.271,-1.061 0.193,-0.586 0.878,-1.625 1.541,-2.338 l 1.194,-1.284 0.958,1.096 c 0.527,0.603 1.153,1.461 1.39,1.908 0.237,0.446 0.571,0.812 0.74,0.812 0.169,0 0.938,-0.494 1.707,-1.098 1.942,-1.526 3.583,-2.033 6.108,-1.889 0.563,0.031 0.576,0.081 0.462,1.699 -0.144,2.037 -0.802,3.611 -2.113,5.051 -0.547,0.601 -0.994,1.215 -0.994,1.365 0,0.15 0.574,0.654 1.276,1.12 0.702,0.466 1.584,1.108 1.961,1.426 l 0.686,0.576 -0.929,0.954 c -0.511,0.525 -1.53,1.234 -2.265,1.576 -1.516,0.706 -1.757,0.96 -1.453,1.536 0.277,0.524 -1.134,1.944 -2.678,2.696 -1.842,0.898 -1.827,0.883 -1.751,1.659 0.057,0.586 -0.111,0.896 -0.839,1.544 -0.501,0.446 -1.501,1.084 -2.223,1.419 -1.151,0.534 -1.562,0.595 -3.354,0.5 -1.764,-0.094 -2.275,-0.232 -3.75,-1.012 l -1.707,-0.903 -1.052,0.982 c -0.579,0.54 -1.105,0.982 -1.17,0.982 -0.064,-0.001 -0.313,-0.221 -0.553,-0.49 z m 11.238,-1.496 c 0.57,-0.249 1.107,-0.641 1.195,-0.873 0.39,-1.03 -2.92,-2.502 -4.982,-2.216 -1.419,0.197 -3.203,1.244 -3.203,1.879 0,0.949 3.175,2.059 5.103,1.783 0.469,-0.067 1.318,-0.325 1.887,-0.573 z m -7.296,-3.721 c 0.577,-0.884 0.671,-1.274 0.665,-2.769 -0.009,-2.207 -0.879,-4.202 -1.833,-4.202 -1.32,0 -2.185,3.738 -1.4,6.055 0.746,2.206 1.541,2.489 2.568,0.916 z m 10.515,-0.225 c 1.413,-0.307 2.585,-1.178 2.366,-1.757 -0.281,-0.741 -2.718,-1.715 -4.291,-1.715 -1.56,0 -3.244,0.721 -3.764,1.611 -0.319,0.547 0.261,1.034 2.014,1.69 1.333,0.499 2.018,0.531 3.675,0.171 z m -6.577,-3.464 c 1.322,-1.438 1.563,-4.247 0.538,-6.282 -0.978,-1.941 -1.614,-1.988 -2.478,-0.18 -0.92,1.925 -0.675,4.414 0.635,6.442 0.447,0.691 0.685,0.694 1.305,0.02 z m 12.104,-1.304 c 1.343,-0.633 1.552,-1.041 0.851,-1.664 -1.871,-1.662 -5.127,-1.837 -7.169,-0.386 -1.049,0.746 -0.859,1.267 0.729,2.001 1.872,0.866 3.82,0.883 5.589,0.049 z m -7.151,-4.07 c 0.564,-1.114 0.67,-1.594 0.595,-2.708 -0.098,-1.471 -1,-3.589 -1.687,-3.961 -0.601,-0.326 -1.348,0.568 -1.805,2.161 -0.433,1.508 -0.2,3.35 0.634,5.005 0.716,1.423 1.362,1.281 2.263,-0.497 z m 4.903,-1.218 c 1.44,-0.633 2.437,-1.592 3.14,-3.021 1.151,-2.34 0.743,-3.127 -1.303,-2.512 -2.154,0.648 -4.45,3.33 -4.45,5.197 0.001,1.141 0.604,1.218 2.613,0.336 z" />&#10;</g>&#10;</svg>
